# AST/ASF file generated using VICON BodyLanguage
# -----------------------------------------------
:version 1.10
:name VICON
:units
  mass 1.0
  length 0.45
  angle deg
:documentation
   .ast/.asf automatically generated from VICON data using
   VICON BodyBuilder and BodyLanguage model FoxedUp or BRILLIANT.MOD
:root
   order TX TY TZ RX RY RZ
   axis XYZ
   position 0 0 0  
   orientation 0 0 0 
:bonedata
  begin
     id 1 
     name lhipjoint
     direction 0.611804 -0.747784 0.257906 
     length 2.29243 
     axis 0 0 0  XYZ
  end
  begin
     id 2 
     name lfemur
     direction 0.34202 -0.939693 0  
     length 7.31159  
     axis 0 0 20  XYZ
    dof rx ry rz
    limits (-160.0 20.0)
           (-70.0 70.0)
           (-60.0 70.0)
  end
  begin
     id 3 
     name ltibia
     direction 0.34202 -0.939693 0   
     length 7.33391   
     axis 0 0 20   XYZ
    dof rx
    limits (-10.0 170.0)
  end
  begin
     id 4 
     name lfoot
     direction 0.122263 -0.335914 0.933924   
     length 1.76083   
     axis -90 7.62852e-016 20   XYZ
    dof rx rz
    limits (-45.0 90.0)
           (-70.0 20.0)
  end
  begin
     id 5 
     name ltoes
     direction 1.53533e-011 -4.2177e-011 1   
     length 0.879206   
     axis -90 7.62852e-016 20   XYZ
    dof rx
    limits (-90.0 20.0)
  end
  begin
     id 6 
     name rhipjoint
     direction -0.646469 -0.721248 0.248754   
     length 2.37677  
     axis 0 0 0  XYZ 
  end
  begin
     id 7 
     name rfemur
     direction -0.34202 -0.939693 0   
     length 7.18623   
     axis 0 0 -20   XYZ
    dof rx ry rz
    limits (-160.0 20.0)
           (-70.0 70.0)
           (-70.0 60.0)
  end
  begin
     id 8 
     name rtibia
     direction -0.34202 -0.939693 0   
     length 7.36567   
     axis 0 0 -20   XYZ
    dof rx
    limits (-10.0 170.0)
 end
 begin
     id 9 
     name rfoot
     direction -0.126681 -0.348054 0.928876   
     length 1.71902  
     axis -90 -7.62852e-016 -20   XYZ
    dof rx rz
    limits (-45.0 90.0)
           (-20.0 70.0)
  end
  begin
     id 10 
     name rtoes
     direction -1.53551e-011 -4.21898e-011 1   
     length 0.857792   
     axis -90 -7.62852e-016 -20   XYZ
    dof rx
    limits (-90.0 20.0)
  end
  begin
     id 11 
     name lowerback
     direction 0.0106509 0.999778 0.0181844   
     length 2.07668   
     axis 0 0 0   XYZ
    dof rx ry rz
    limits (-20.0 45.0)
           (-30.0 30.0)
           (-30.0 30.0)
  end
  begin
     id 12 
     name upperback
     direction -0.00456018 0.999989 -0.000590935   
     length 2.08011   
     axis 0 0 0   XYZ
    dof rx ry rz
    limits (-20.0 45.0)
           (-30.0 30.0)
           (-30.0 30.0)
  end
  begin
     id 13 
     name thorax
     direction -0.00910382 0.999916 -0.00923765   
     length 2.07397   
     axis 0 0 0   XYZ
    dof rx ry rz
    limits (-20.0 45.0)
           (-30.0 30.0)
           (-30.0 30.0)
  end
  begin
     id 14 
     name lowerneck
     direction 0.00171967 0.99778 0.0665733   
     length 1.67556   
     axis 0 0 0   XYZ
    dof rx ry rz
    limits (-20.0 45.0)
           (-30.0 30.0)
           (-30.0 30.0)
  end
  begin
     id 15 
     name upperneck
     direction -0.0143166 0.991302 -0.130828   
     length 1.68462   
     axis 0 0 0   XYZ
    dof rx ry rz
    limits (-20.0 45.0)
           (-30.0 30.0)
           (-30.0 30.0)
  end
  begin
     id 16
     name head
     direction -0.00606378 0.998665 -0.0512995  
     length 1.69269  
     axis 0 0 0   XYZ
    dof rx ry rz
    limits (-20.0 45.0)
           (-30.0 30.0)
           (-30.0 30.0)
  end
  begin
     id 17 
     name lclavicle
     direction 0.9638 0.179341 0.197297  
     length 4.12888  
     axis 0 0 0   XYZ
    dof ry rz
    limits (-20.0 10.0)
           (0.0 20.0)
  end
  begin
     id 18 
     name lhumerus
     direction 1 -4.48972e-011 -2.47351e-027   
     length 5.01834   
     axis -180 -30 -90   XYZ
    dof rx ry rz
    limits (-60.0 90.0)
           (-90.0 90.0)
           (-90.0 90.0)
  end
  begin
     id 19
     name lradius
     direction 1 -4.48965e-011 1.51591e-026   
     length 3.4869   
     axis -180 -30 -90   XYZ
    dof rx
    limits (-10.0 170.0)
  end
  begin
     id 20
     name lwrist
     direction 1 -4.48957e-011 2.70032e-026   
     length 1.74345   
     axis -1.81515e-014 90 90   XYZ
    dof ry
    limits (-180.0 0.0)
 end
  begin
     id 21 
     name lhand
     direction 1 -4.48951e-011 5.40064e-026   
     length 0.76799   
     axis -3.44607e-014 90 90   XYZ
    dof rx rz
    limits (-90.0 90.0)
           (-45.0 45.0)
  end
  begin
     id 22 
     name lfingers
     direction 1 -4.48971e-011 1.08013e-025   
     length 0.619174   
     axis -6.89214e-014 90 90   XYZ
    dof rx
    limits (0.0 90.0)
  end
  begin
     id 23
     name lthumb
     direction 0.707107 -6.34931e-011 0.707107   
     length 0.889013   
     axis -90 45 2.85299e-015   XYZ
    dof rx rz
    limits (-45.0 45.0)
           (-45.0 45.0)
  end
  begin
     id 24 
     name rclavicle
     direction -0.961409 0.252588 0.109054   
     length 4.04305  
     axis 0 0 0   XYZ 
    dof ry rz
    limits (-10.0 20.0)
           (-20.0 0.0)
  end
  begin
     id 25 
     name rhumerus
     direction -1 -4.4897e-011 1.33872e-017  
     length 4.70164   
     axis -180 30 90   XYZ
    dof rx ry rz
    limits (-90.0 60.0)
           (-90.0 90.0)
           (-90.0 90.0)
  end
  begin
     id 26 
     name rradius
     direction -1 -4.48954e-011 1.83844e-026   
     length 3.49911   
     axis -180 30 90   XYZ
    dof rx
    limits (-10.0 170.0)
  end
  begin
     id 27 
     name rwrist
     direction -1 -4.49008e-011 2.70032e-026   
     length 1.74955   
     axis -1.81515e-014 -90 -90   XYZ
    dof ry
    limits (-180.0 0.0)
  end
  begin
     id 28
     name rhand
     direction -1 -4.48916e-011 5.40064e-026   
     length 0.739335   
     axis -3.44607e-014 -90 -90   XYZ
    dof rx rz
    limits (-90.0 90.0)
           (-45.0 45.0)
  end
  begin
     id 29
     name rfingers
     direction -1 -4.48987e-011 1.08013e-025   
     length 0.596071   
     axis -6.89214e-014 -90 -90   XYZ
    dof rx
    limits (0.0 90.0)
  end
  begin
     id 30
     name rthumb
     direction -0.707107 -6.34935e-011 0.707107   
     length 0.855843   
     axis -90 -45 -2.85299e-015   XYZ
    dof rx rz
    limits (-45.0 45.0)
           (-45.0 45.0)
  end
:hierarchy
  begin
    root lhipjoint rhipjoint lowerback
    lhipjoint lfemur
    lfemur ltibia
    ltibia lfoot
    lfoot ltoes
    rhipjoint rfemur
    rfemur rtibia
    rtibia rfoot
    rfoot rtoes
    lowerback upperback
    upperback thorax
    thorax lowerneck lclavicle rclavicle
    lowerneck upperneck
    upperneck head
    lclavicle lhumerus
    lhumerus lradius
    lradius lwrist
    lwrist lhand lthumb
    lhand lfingers
    rclavicle rhumerus
    rhumerus rradius
    rradius rwrist
    rwrist rhand rthumb
    rhand rfingers
  end

#!OML:ASF I:\salsa\salsa 7_09\Patient 1\Session 1\dancermale.ASF
:FULLY-SPECIFIED
:DEGREES
951
root 2.6425 17.2249 -10.6847 10.0752 13.6672 717.558
lowerback -4.13729 -1.25743 -3.74304
upperback -4.30167 -1.59293 -1.43654
thorax -2.04959 -0.714996 0.581357
lowerneck -3.891 -14.6751 -9.54342
upperneck 19.7501 -19.8133 2.95568
head 8.01335 -9.9418 0.659995
rclavicle 1.45454e-014 6.36111e-015
rhumerus 10.7472 -2.4177 -26.9644
rradius 111.21
rwrist -3.44197
rhand -37.1158 22.0972
rfingers 7.12502
rthumb -10.1863 -7.63621
lclavicle 1.45454e-014 6.36111e-015
lhumerus -59.136 -22.2665 98.3844
lradius 97.671
lwrist 5.7623
lhand -11.7655 50.1705
lfingers 7.12502
lthumb 14.2829 -280.341
rfemur -17.6692 -4.32255 22.0459
rtibia 29.6611
rfoot -24.4346 -15.6657
rtoes 2.26781
lfemur -12.6772 6.03049 -19.3416
ltibia 23.2465
lfoot -23.5174 9.72345
ltoes -8.61561
952
root 2.64577 17.2304 -10.7153 10.359 13.256 718.217
lowerback -3.926 -1.27166 -4.26292
upperback -4.47637 -1.62374 -1.84374
thorax -2.34857 -0.715315 0.458182
lowerneck -3.87407 -14.6852 -9.32414
upperneck 19.5124 -19.8797 3.13425
head 7.92972 -9.94942 0.690547
rclavicle 7.47927e-015 4.77083e-014
rhumerus 12.4006 -1.18606 -27.131
rradius 110.185
rwrist -4.23341
rhand -36.0914 21.7492
rfingers 7.12502
rthumb -9.19796 -8.03015
lclavicle 7.47927e-015 4.77083e-014
lhumerus -58.4741 -23.891 97.9157
lradius 97.4675
lwrist 5.85483
lhand -11.3493 50.0843
lfingers 7.12502
lthumb 14.6839 -280.456
rfemur -18.6759 -5.2654 21.1946
rtibia 31.0721
rfoot -24.673 -15.6432
rtoes 0.384704
lfemur -12.7405 6.7163 -20.1346
ltibia 22.7747
lfoot -22.9546 9.4631
ltoes -11.0516
953
root 2.64746 17.2309 -10.7551 10.5882 12.7956 718.676
lowerback -3.75879 -1.20642 -4.33908
upperback -4.5522 -1.5564 -2.3144
thorax -2.53573 -0.682953 0.0218451
lowerneck -3.90336 -14.6671 -9.12587
upperneck 19.1577 -19.9249 3.47892
head 7.83364 -9.9353 0.776613
rclavicle -2.07544e-014 -6.36111e-015
rhumerus 14.3436 0.269116 -27.4247
rradius 108.771
rwrist -4.35299
rhand -35.1378 21.957
rfingers 7.12502
rthumb -8.27773 -7.86084
lclavicle -2.07544e-014 -6.36111e-015
lhumerus -57.5026 -26.1042 97.5981
lradius 97.2214
lwrist 5.81233
lhand -11.199 49.9574
lfingers 7.12502
lthumb 14.8288 -280.593
rfemur -19.7181 -6.33474 20.628
rtibia 32.5589
rfoot -24.7654 -16.267
rtoes -0.27808
lfemur -13.0134 7.10481 -20.7527
ltibia 22.6163
lfoot -22.654 9.41323
ltoes -11.5491
954
root 2.64527 17.2219 -10.8017 10.7831 12.2963 718.758
lowerback -3.64103 -1.03152 -3.91699
upperback -4.61747 -1.34871 -2.74106
thorax -2.69455 -0.59613 -0.646725
lowerneck -3.69325 -14.6337 -8.99278
upperneck 18.5356 -19.9706 3.97718
head 7.63168 -9.92387 0.946409
rclavicle 4.46023e-015 -3.33958e-014
rhumerus 16.4346 1.79641 -27.5813
rradius 107.073
rwrist -3.76584
rhand -34.5988 22.5709
rfingers 7.12502
rthumb -7.75759 -7.26678
lclavicle 4.46023e-015 -3.33958e-014
lhumerus -56.3596 -28.8728 97.5782
lradius 96.9723
lwrist 5.97262
lhand -11.5842 50.2292
lfingers 7.12502
lthumb 14.4577 -280.294
rfemur -20.7833 -7.74236 20.5454
rtibia 34.0335
rfoot -25.2029 -17.4053
rtoes 1.26043
lfemur -14.091 8.07454 -20.9708
ltibia 23.9485
lfoot -23.1554 9.05436
ltoes -10.8636
955
root 2.63891 17.2118 -10.8517 10.8345 11.596 718.715
lowerback -3.49752 -0.75418 -3.39951
upperback -4.57424 -1.00179 -3.13753
thorax -2.75048 -0.445314 -1.3379
lowerneck -3.52295 -14.6462 -8.76454
upperneck 17.8683 -20.0522 4.35731
head 7.40327 -9.93453 1.06269
rclavicle 1.76763e-014 -1.59028e-015
rhumerus 18.6096 3.19151 -27.5491
rradius 105.446
rwrist -3.00493
rhand -33.917 22.6789
rfingers 7.12502
rthumb -7.09947 -7.18199
lclavicle 1.76763e-014 -1.59028e-015
lhumerus -54.9469 -31.963 97.6837
lradius 96.8595
lwrist 6.78844
lhand -10.7386 49.6203
lfingers 7.12502
lthumb 15.2723 -280.964
rfemur -21.7306 -9.21152 20.6015
rtibia 35.5625
rfoot -26.0114 -18.8057
rtoes 4.76715
lfemur -14.8957 8.74364 -21.1075
ltibia 25.0812
lfoot -23.5278 9.28151
ltoes -9.95335
956
root 2.62494 17.2057 -10.9074 10.8457 10.7084 718.694
lowerback -3.36647 -0.445779 -3.0583
upperback -4.40756 -0.602173 -3.45597
thorax -2.65795 -0.263076 -1.85184
lowerneck -3.91165 -14.7437 -8.53886
upperneck 17.5579 -20.2004 4.57736
head 7.37658 -9.96952 1.06304
rclavicle -4.69629e-015 -2.8625e-014
rhumerus 21.4695 4.27068 -27.5092
rradius 103.695
rwrist -2.2216
rhand -32.4279 21.7229
rfingers 7.12502
rthumb -5.66187 -8.18147
lclavicle -4.69629e-015 -2.8625e-014
lhumerus -53.1526 -35.1392 97.8069
lradius 96.855
lwrist 7.89558
lhand -10.1895 50.095
lfingers 7.12502
lthumb 15.8012 -280.53
rfemur -22.7411 -10.477 20.6503
rtibia 37.394
rfoot -26.2306 -20.3543
rtoes 7.35765
lfemur -15.5097 9.31611 -21.2952
ltibia 25.9082
lfoot -23.6494 10.0732
ltoes -9.79326
957
root 2.61189 17.2076 -10.9527 10.9961 9.48622 718.796
lowerback -3.50684 -0.0282439 -2.9714
upperback -4.20899 -0.0353823 -3.76475
thorax -2.36844 0.0103401 -2.21221
lowerneck -4.5198 -14.8748 -8.34382
upperneck 17.3363 -20.395 4.85258
head 7.42919 -10.0162 1.05565
rclavicle 6.80837e-015 -1.59028e-014
rhumerus 24.3692 5.03633 -27.4518
rradius 101.551
rwrist -1.1816
rhand -31.0048 21.1399
rfingers 7.12502
rthumb -4.28775 -8.7967
lclavicle 6.80837e-015 -1.59028e-014
lhumerus -51.2012 -38.6221 98.0904
lradius 96.8417
lwrist 8.62212
lhand -8.65433 49.2226
lfingers 7.12502
lthumb 17.2792 -281.526
rfemur -23.8837 -11.3533 20.5468
rtibia 39.4349
rfoot -25.5819 -21.528
rtoes 10.425
lfemur -15.702 9.27224 -21.5831
ltibia 26.0526
lfoot -24.0511 10.4716
ltoes -4.25336
958
root 2.6028 17.2159 -10.9914 11.2274 8.225 718.959
lowerback -3.73329 0.419568 -2.86737
upperback -4.04445 0.575302 -4.12268
thorax -2.05709 0.306014 -2.62815
lowerneck -4.92423 -14.9062 -8.15143
upperneck 16.9608 -20.4685 5.20021
head 7.39661 -10.0085 1.10709
rclavicle 8.44835e-015 -8.5875e-014
rhumerus 27.1914 5.6707 -27.0396
rradius 99.1853
rwrist -0.00921419
rhand -29.8634 20.8285
rfingers 7.12502
rthumb -3.18552 -9.12741
lclavicle 8.44835e-015 -8.5875e-014
lhumerus -49.2224 -42.369 98.4093
lradius 96.7757
lwrist 8.82495
lhand -7.54763 48.4952
lfingers 7.12502
lthumb 18.3441 -282.35
rfemur -24.9411 -12.1594 20.3181
rtibia 41.3055
rfoot -24.0486 -22.1853
rtoes 15.8955
lfemur -15.5465 8.73352 -22.0404
ltibia 25.2759
lfoot -23.7638 11.6986
ltoes -1.62666
959
root 2.59503 17.2295 -11.0352 11.5217 7.08444 719.133
lowerback -3.91668 0.824795 -2.60354
upperback -3.89644 1.12292 -4.5632
thorax -1.77494 0.567131 -3.21707
lowerneck -5.32744 -14.8937 -7.84244
upperneck 16.5715 -20.4878 5.51992
head 7.34051 -9.97201 1.1432
rclavicle -1.80894e-014 6.04305e-014
rhumerus 29.971 6.06801 -26.4146
rradius 96.5909
rwrist 1.53878
rhand -28.6486 20.3117
rfingers 7.12502
rthumb -2.01236 -9.65855
lclavicle -1.80894e-014 6.04305e-014
lhumerus -47.2562 -46.3257 98.7485
lradius 96.9898
lwrist 9.37688
lhand -7.63627 48.715
lfingers 7.12502
lthumb 18.2588 -282.122
rfemur -25.8847 -12.7435 20.0306
rtibia 42.8046
rfoot -21.644 -22.8295
rtoes 19.9178
lfemur -15.4749 8.23862 -22.5931
ltibia 24.2846
lfoot -23.0811 13.2699
ltoes -0.33285
960
root 2.58872 17.2455 -11.0858 11.7982 6.05341 719.213
lowerback -4.02899 1.19233 -2.13606
upperback -3.69865 1.61477 -5.02585
thorax -1.46441 0.798401 -3.94299
lowerneck -5.85054 -14.9196 -7.35281
upperneck 16.1544 -20.5657 5.80144
head 7.27682 -9.95489 1.13022
rclavicle -5.06901e-015 -2.54444e-014
rhumerus 32.8569 6.06885 -25.826
rradius 93.4171
rwrist 3.1525
rhand -27.0897 19.6274
rfingers 7.12502
rthumb -0.506755 -10.3517
lclavicle -5.06901e-015 -2.54444e-014
lhumerus -44.8593 -50.026 98.6236
lradius 97.233
lwrist 9.23016
lhand -6.79232 48.5569
lfingers 7.12502
lthumb 19.0705 -282.358
rfemur -26.658 -12.7516 19.8039
rtibia 43.8773
rfoot -19.4673 -23.431
rtoes 23.1406
lfemur -15.5291 7.96885 -23.0767
ltibia 23.2537
lfoot -21.8774 15.202
ltoes -1.65675
961
root 2.56972 17.2701 -11.1319 12.1655 4.97343 719.513
lowerback -4.24131 1.48639 -2.19352
upperback -3.5285 2.02746 -5.41077
thorax -1.13761 1.00376 -4.29039
lowerneck -6.29371 -14.8785 -6.87456
upperneck 15.6848 -20.5337 5.98721
head 7.16625 -9.89824 1.11246
rclavicle 2.29596e-014 -8.11041e-014
rhumerus 35.9135 5.85238 -25.0654
rradius 89.6442
rwrist 3.73856
rhand -24.8305 18.7104
rfingers 7.12502
rthumb 1.67527 -11.2628
lclavicle 2.29596e-014 -8.11041e-014
lhumerus -42.6129 -53.4251 98.538
lradius 97.6281
lwrist 9.36861
lhand -6.55857 48.1388
lfingers 7.12502
lthumb 19.2953 -282.798
rfemur -27.0902 -13.0446 19.2718
rtibia 43.9579
rfoot -18.9938 -23.3247
rtoes 21.5349
lfemur -15.5712 7.28015 -23.6553
ltibia 22.5118
lfoot -21.6504 16.332
ltoes 1.87034
962
root 2.54684 17.3003 -11.1688 12.3814 3.74134 719.642
lowerback -4.31617 1.77076 -2.28488
upperback -3.42973 2.41805 -5.61928
thorax -0.966421 1.19983 -4.43824
lowerneck -6.5912 -14.7055 -6.49504
upperneck 15.2931 -20.2866 5.97307
head 7.03155 -9.76233 1.08279
rclavicle -2.23633e-014 -2.70347e-014
rhumerus 39.0414 5.57235 -24.1897
rradius 85.2904
rwrist 3.45148
rhand -22.0504 17.4786
rfingers 7.12502
rthumb 4.36012 -12.4565
lclavicle -2.23633e-014 -2.70347e-014
lhumerus -40.9316 -56.4629 98.7818
lradius 98.2526
lwrist 9.92733
lhand -6.96077 47.7312
lfingers 7.12502
lthumb 18.9086 -283.168
rfemur -27.1009 -12.9697 18.8163
rtibia 43.3359
rfoot -18.377 -22.2329
rtoes 20.2266
lfemur -15.4004 6.94116 -23.9886
ltibia 21.7296
lfoot -21.1146 17.6194
ltoes 2.574
